<?xml version="1.0" standalone="no"?>
<!DOCTYPE svg PUBLIC "-//W3C//DTD SVG 20010904//EN"
 "http://www.w3.org/TR/2001/REC-SVG-20010904/DTD/svg10.dtd">
<svg version="1.0" xmlns="http://www.w3.org/2000/svg"
 width="1406.000000pt" height="1219.000000pt" viewBox="0 0 1406.000000 1219.000000"
 preserveAspectRatio="xMidYMid meet">

<g transform="translate(0.000000,1219.000000) scale(0.100000,-0.100000)"
fill="#FFFFFF" stroke="none">
<path d="M4773 10673 c-69 -155 -501 -1244 -721 -1818 -320 -834 -357 -970
-317 -1150 30 -138 30 -139 -217 -725 -739 -1748 -1028 -2465 -1028 -2549 0
-24 15 -36 137 -112 191 -119 428 -257 945 -550 857 -486 864 -490 943 -559
116 -100 244 -277 415 -575 179 -312 234 -379 406 -495 223 -151 695 -422 710
-408 5 6 -16 111 -57 271 -58 230 -662 2401 -687 2468 -10 27 -10 29 -112
-211 -90 -212 -181 -414 -191 -425 -10 -11 -168 69 -559 283 -429 234 -660
369 -660 385 0 9 22 37 173 221 123 149 184 234 192 267 8 33 2 37 -210 154
-371 204 -350 187 -349 278 1 70 12 100 156 427 121 275 326 689 438 885 198
345 380 592 609 827 123 127 132 139 120 157 -8 11 -72 92 -144 181 -158 196
-235 306 -235 336 0 32 82 292 183 579 93 263 276 756 286 767 7 8 419 -428
532 -562 190 -225 240 -338 254 -576 5 -70 14 -131 22 -147 10 -21 36 -39 90
-63 159 -73 284 -174 350 -285 55 -92 141 -447 469 -1928 225 -1018 280 -1252
300 -1278 11 -17 13 -16 24 12 18 46 114 466 295 1283 276 1246 398 1760 437
1840 31 66 124 178 197 238 36 31 108 76 159 100 85 41 95 49 112 87 10 23 26
87 35 142 36 232 59 286 201 475 128 170 574 700 590 701 4 0 58 -147 120
-328 61 -180 148 -431 193 -557 112 -318 127 -401 96 -534 -29 -123 -83 -206
-248 -381 l-108 -114 181 -181 c284 -285 456 -519 617 -840 114 -226 522
-1214 526 -1272 2 -26 -13 -38 -188 -156 -249 -168 -332 -228 -351 -256 -20
-30 -19 -32 155 -237 140 -165 211 -256 211 -271 0 -5 -35 -29 -77 -53 -242
-138 -1095 -601 -1134 -616 -14 -5 -31 28 -94 177 -107 253 -176 399 -189 395
-18 -5 -125 -341 -300 -937 -276 -945 -476 -1657 -476 -1697 0 -20 18 -16 102
21 180 79 548 310 662 417 89 83 212 269 425 640 l164 287 121 67 c67 37 366
203 666 368 985 542 1293 715 1388 779 37 26 42 33 42 67 0 22 -9 69 -20 105
-43 137 -303 765 -956 2303 l-263 621 29 172 c17 95 30 194 30 220 0 112 -57
277 -415 1190 -527 1348 -661 1672 -691 1684 -8 3 -87 -74 -206 -202 -249
-267 -790 -868 -938 -1041 -214 -250 -273 -313 -347 -372 -188 -149 -388 -191
-812 -169 -348 18 -512 42 -590 86 -96 55 -352 335 -1111 1219 -373 433 -447
515 -465 515 -7 0 -26 -30 -42 -67z"/>
<path d="M5000 5857 c0 -85 234 -642 291 -694 46 -42 199 -109 474 -209 207
-75 292 -122 445 -247 46 -38 86 -65 88 -59 4 14 -123 578 -153 677 -34 111
-62 148 -138 184 -64 30 -652 248 -879 326 -125 43 -128 44 -128 22z"/>
<path d="M8985 5848 c-344 -118 -785 -286 -905 -346 -72 -36 -76 -39 -98 -95
-39 -100 -100 -304 -152 -510 -48 -191 -59 -257 -42 -257 4 0 48 34 97 76 143
120 256 178 575 294 176 64 311 131 347 173 14 18 46 73 69 122 43 90 204 526
204 552 0 18 -23 15 -95 -9z"/>
<path d="M6227 2833 c-4 -3 -7 -111 -7 -240 l0 -233 808 2 807 3 3 231 2 231
-67 6 c-91 9 -1538 9 -1546 0z"/>
</g>
</svg>
